<?xml version="1.0" encoding="UTF-8"?>
<!DOCTYPE svg PUBLIC "-//W3C//DTD SVG 1.1//EN" "http://www.w3.org/Graphics/SVG/1.1/DTD/svg11.dtd">
<!-- Creator: CorelDRAW 2019 (64 Bit) -->
<svg xmlns="http://www.w3.org/2000/svg" xml:space="preserve" width="62.8222mm" height="62.8222mm" version="1.1" style="shape-rendering:geometricPrecision; text-rendering:geometricPrecision; image-rendering:optimizeQuality; fill-rule:evenodd; clip-rule:evenodd"
viewBox="0 0 6276.59 6276.59"
 xmlns:xlink="http://www.w3.org/1999/xlink">
 <defs>
  <style type="text/css">
   <![CDATA[
    .str0 {stroke:#C36C5B;stroke-width:281.97;stroke-linecap:round;stroke-linejoin:round;stroke-miterlimit:22.9256}
    .str1 {stroke:#C36C5B;stroke-width:281.97;stroke-linecap:round;stroke-linejoin:round;stroke-miterlimit:10}
    .fil0 {fill:none}
    .fil1 {fill:#C36C5B;fill-rule:nonzero}
   ]]>
  </style>
 </defs>
 <g id="Camada_x0020_1">
  <metadata id="CorelCorpID_0Corel-Layer"/>
  <circle class="fil0 str0" cx="3138.29" cy="3138.29" r="2997.31"/>
  <path class="fil1 str1" d="M5642.65 2500.22l-4.9 -43.52 -561.33 125.29 -264.21 -138.4 -47.19 110.1 -264.22 -110.1 28.33 -122.67 -203.96 108.96 27.83 -583.95 130.97 -293.66 -1864.16 -153 -406.78 -608.87c-23.91,158.82 -65.08,426.43 -65.08,426.43l-940.48 -34.58 53.47 720.3 421.48 -28.29 -18.87 286.25 154.12 128.93 -325.07 394.11 146.07 792.98 521.7 -17.39 -27.83 278.24 208.69 97.38 23.79 90.1 24.9 94.24 -97.38 556.48 -139.13 41.74 142.6 180.86 -17.39 393.01 379.1 52.17 233.03 -66.08 121.73 570.39 226.08 -66.08 111.29 104.34 329.15 -445.29 51.14 -69.2 188.73 -81.81 220.2 -490.67 138.4 -97.52 54.12 -43 41.12 -132.54 71.48 -230.22 607.06 -128.99 157.29 66.06 154.14 -171.43 -81.8 -190.31 179.27 -390.04 0 -333.42 308.28 77.72 -125.82 -625.04z"/>
 </g>
</svg>
