<?xml version="1.0" encoding="UTF-8"?>
<!DOCTYPE svg PUBLIC "-//W3C//DTD SVG 1.1//EN" "http://www.w3.org/Graphics/SVG/1.1/DTD/svg11.dtd">
<!-- Creator: CorelDRAW 2019 (64 Bit) -->
<svg xmlns="http://www.w3.org/2000/svg" xml:space="preserve" width="260.077mm" height="265.881mm" version="1.1" style="shape-rendering:geometricPrecision; text-rendering:geometricPrecision; image-rendering:optimizeQuality; fill-rule:evenodd; clip-rule:evenodd"
viewBox="0 0 23467.19 23990.86"
 xmlns:xlink="http://www.w3.org/1999/xlink">
 <defs>
  <style type="text/css">
   <![CDATA[
    .fil0 {fill:#698E2E;fill-rule:nonzero}
   ]]>
  </style>
 </defs>
 <g id="Camada_x0020_1">
  <metadata id="CorelCorpID_0Corel-Layer"/>
  <path class="fil0" d="M3487.61 2082.78l481.4 -233.64c74.66,-36.02 165.52,-8.47 207.03,64.66l173.07 304.61c12.64,19.86 21.05,42.84 23.8,67.82l43.37 390.27 567.42 -149.88c83.25,-24.86 171.22,21.81 197.13,104.98l16.87 53.69 1088.37 -664.2 -468.24 -282.15 0.1 -0.16c-24.4,-14.67 -45.16,-36.08 -59.16,-63.25l-416.65 -805.04c-15.26,-28.55 -21.97,-62.01 -17.2,-96.52 12.02,-86.87 92.19,-147.55 179.06,-135.53l1019.43 141.6c50.82,7.08 97.27,38.61 121.24,88.28l32.95 68.25 1035.44 -444.6 61.55 -341.28c10.42,-74.87 73.37,-133.72 151.52,-136.48l397.69 -14.16c87.55,-2.4 160.49,66.64 162.89,154.19l12.39 427.47 208.65 220.24c44.56,43.2 61.41,110.52 37.41,171.95l-230.62 586.42 149.32 716.77 423.93 157.01 826.2 -448.87c32.02,-20.27 71.36,-29.22 111.66,-22.34l644.17 111.39 -77.42 -168.17c-12.79,-26.13 -18.57,-56.08 -15.15,-87.14 9.61,-87.21 88.11,-150.12 175.32,-140.51l753.21 84.47 554.37 6.84c19.87,-0.75 40.21,2.23 60.05,9.42l453.62 164.96 101.24 -450.51c6.06,-30.38 21.06,-59.31 44.94,-82.54l456.1 -443.06 47.79 -370.42c2.96,-68.32 50.1,-129.54 119.79,-147.24 85.15,-21.63 171.73,29.87 193.36,115.02l197.22 774.74 183.77 507.77c60.64,-28.01 134.88,-15.53 182.85,36.03l369.44 397.33c40.78,39.46 59.07,99.52 42.45,157.91l-159.29 557.49 6.57 31.19 51.11 -24.78c42.08,-20.27 92.69,-21.87 138.02,0l735.14 357.07c67.4,27.82 108.91,99.53 95.85,174.34l-5.09 29.09 148.01 -44.93c36.45,-11.41 77.12,-9.76 114.45,7.69l1329 621.09 190.03 -123.3c74.16,-46.69 172.15,-24.43 218.85,49.74l426.32 676.42 134.63 -131.27c37.64,-42.24 96.67,-63.01 155.57,-49.05l1012.35 240.7 -0.06 0.27c29.54,6.97 57.41,22.47 79.65,46.36l136.81 146.94 891.17 -97.58 0.03 0.24c40.81,-4.33 83.27,7.07 117.47,35.19l1576.81 1293.26 986.31 101.35c54.57,5.72 104.73,39.55 128.7,93.25l426.98 951.94c15.81,29.26 22.61,63.7 17.3,99.13l-169.9 1118.55 -0.47 -0.07c-4.09,27.45 -15.44,54.18 -34.34,77.17l-576.22 702.07 10.54 179 -0.32 0.02c3.79,64.63 -32.55,127.65 -95.43,154.79l-532.23 230.85 -555.06 1171.03 -0.26 -0.13c-14.24,30.23 -38.1,56.21 -69.99,72.87l-545.61 284.94 85.23 1370.38c0.93,9.05 1.1,18.3 0.44,27.68l-84.94 1168.09 -0.2 -0.02c-1.96,28.17 -11.45,56.16 -29.02,80.85l-291.58 408.23 -32.92 691.27c-0.51,38.02 -14.59,75.98 -42.53,106.01l-692.64 746.43 -58.15 620.16c-3.42,57.19 -37.79,110.55 -93.71,135.51l-408 182.03 -183.25 372.62c-25.21,58.96 -84.94,99.09 -152.79,96.17l-1386.65 -60.57 -453.11 472.25 -0.08 -0.08c-13.44,13.99 -29.7,25.73 -48.41,34.27l-949.49 433.46 -849.31 875.46 70.28 785.85c3.4,20.17 2.96,41.32 -1.97,62.47l-169.33 726.64c-8.35,38.72 -31.07,74.39 -66.49,98.28l-509.75 344.23 -432.89 899.62c-10.89,23.93 -27.87,45.48 -50.58,62.12l-907.02 668.33 -313.16 719.56c-13.21,34 -38.13,63.64 -72.77,82.26l-538.03 290.26c-19.92,10.7 -42.44,17.33 -66.52,18.65 -87.55,4.8 -162.44,-62.28 -167.24,-149.83l-21.24 -368.13c-2.79,-52.51 20.51,-105.29 66.52,-138.03l163.14 -116.53 -263.07 -341.03 -955.94 -578.57c-48.19,39.15 -96.2,79.67 -145.16,117.73 -70.39,52.19 -169.76,37.44 -221.95,-32.95l-414.43 -556.7 -376.92 73.13 -0.03 -0.13c-44.13,8.41 -91.53,-1.84 -129.28,-32.19 -68.32,-54.93 -79.19,-154.87 -24.25,-223.2l977.31 -1216.34c12.79,-18.35 29.68,-34.3 50.27,-46.32l1182.64 -690.78 96.66 -358.64 -129.96 -317.69 -325.8 0c-13.76,-0.03 -27.74,-1.82 -41.65,-5.59 -84.81,-23 -134.91,-110.41 -111.91,-195.22l215.7 -793.02 -90.6 -84.94 -363.54 106.26c-6.79,2.44 -13.81,4.46 -21.05,5.99 -85.84,18.19 -170.2,-36.64 -188.39,-122.48l-212.32 -994.84 -311.44 88.32 -0.03 -0.11c-20.21,5.68 -41.89,7.44 -64.01,4.46l-771.65 -106.18c-80.52,-10.75 -140.96,-81.41 -137.4,-164.13l32.78 -740.79 -252.27 -319.96c-12.9,-15.8 -22.96,-34.35 -29.15,-55.12 -25.06,-84.12 22.81,-172.65 106.93,-197.71l188.8 -56.65 175.41 -1002.35 -71.17 -269.44 -350.41 -163.52c-63.17,-25.91 -104.67,-90.93 -97.64,-162.36l38.63 -386.25 -877.04 29.24c-78.76,4.55 -150.41,-50.2 -164.99,-129.8l-282.03 -1531.05 -1359.85 -590.39 -883.72 -238.46 0.03 -0.1c-28.2,-7.5 -54.65,-22.86 -75.88,-45.91l-495.55 -538.04c-46.77,-50.83 -56.41,-128.35 -18.65,-190.24l77.65 -126.71 -94.6 -123.39c-48.36,-60.46 -46.42,-148.84 7.9,-207.22l47.34 -50.74 -25.26 -176.87 -69.21 3.95 -1096.04 551.45 -0.14 -0.26c-45.99,23.14 -102.35,23.48 -150.33,-4.1l-52.17 -30.09 -98.9 155.97c-27.48,47.78 -79.02,79.95 -138.08,79.95l-1231.83 0 0 -0.62c-86.7,0.02 -157.52,-69.74 -158.54,-156.67l-11.02 -727.41 -729.1 205.94c-35.09,9.84 -73.74,7.75 -109.42,-8.71l-644.24 -297.32c-77.66,-35.84 -113.29,-127.18 -79.58,-206.41l95.19 -222.11 -530 -857.17c-40.88,-66.16 -27.93,-154.03 33.58,-205.17l93.15 -77.62 -64.43 -81.24c-12.12,-14.57 -21.82,-31.56 -28.26,-50.57 -28.15,-83.09 16.39,-173.28 99.47,-201.43l385.51 -130.39 73.59 -674.63c3.34,-38.07 20.34,-75.05 50.67,-102.96l446 -410.62 0.18 0.2c29.16,-26.83 68.36,-42.85 111.1,-41.85l489.43 12.24 177.85 -215.56c35.68,-49.5 98.39,-76.05 161.92,-62.58l373.54 79.69 335.11 -1675.58 -137.63 -152.92 0.25 -0.23c-43.36,-48.18 -54.28,-120.19 -22.02,-180.69l42.79 -80.23 -219.81 -133.61c-53.27,-25.73 -90.02,-80.28 -90.02,-143.4l0 -417.7c0,-87.89 71.26,-159.16 159.16,-159.16l269.15 0 -139.63 -32.41c-58.44,-12.57 -107.3,-57.76 -121.52,-119.87l-82.52 -357.63c-5.66,-18.77 -7.93,-38.9 -6.14,-59.62 7.55,-87.55 84.66,-152.41 172.22,-144.86l811.46 71.08 0.35 -4.09 0.33 0.03c4.71,-53.94 36.89,-104.11 89.19,-129.35z"/>
 </g>
</svg>
