<?xml version="1.0" encoding="UTF-8"?>
<!DOCTYPE svg PUBLIC "-//W3C//DTD SVG 1.1//EN" "http://www.w3.org/Graphics/SVG/1.1/DTD/svg11.dtd">
<!-- Creator: CorelDRAW 2019 (64 Bit) -->
<svg xmlns="http://www.w3.org/2000/svg" xml:space="preserve" width="62.8222mm" height="62.8222mm" version="1.1" style="shape-rendering:geometricPrecision; text-rendering:geometricPrecision; image-rendering:optimizeQuality; fill-rule:evenodd; clip-rule:evenodd"
viewBox="0 0 6276.59 6276.59"
 xmlns:xlink="http://www.w3.org/1999/xlink">
 <defs>
  <style type="text/css">
   <![CDATA[
    .str0 {stroke:#DBB891;stroke-width:281.97;stroke-linecap:round;stroke-linejoin:round;stroke-miterlimit:22.9256}
    .str1 {stroke:#DBB891;stroke-width:281.97;stroke-linecap:round;stroke-linejoin:round;stroke-miterlimit:10}
    .fil0 {fill:none}
    .fil1 {fill:#DBB891;fill-rule:nonzero}
   ]]>
  </style>
 </defs>
 <g id="Camada_x0020_1">
  <metadata id="CorelCorpID_0Corel-Layer"/>
  <circle class="fil0 str0" cx="3138.29" cy="3138.29" r="2997.31"/>
  <polygon class="fil1 str1" points="3446.85,1238.77 3354.29,1248.9 3262.09,1149.87 2773.78,1033.77 2637.18,1166.95 2381.07,760.59 2254.73,842.53 2036.28,740.45 1671.34,1704.55 1368.67,1877.49 1692.98,1997.95 1649.73,2485.91 1801.05,2760.76 1930.76,2689.74 1946.21,2804 1782.55,3044.91 1995.61,3353.73 2136.79,3361.16 1930.76,3647.14 1987.74,4154.14 1992.55,4196.86 2116.08,4810.55 2526.85,4540.77 3283.48,4826.89 3425.54,4996.74 3823.92,4993.67 3638.65,5444.55 3756.01,5657.67 3914.33,5735.96 4067.99,5520.82 4108.96,4957.39 4064.57,4243.69 4371.91,4083.19 4514.18,3783.04 4651.92,3492.43 4812.3,3422.88 4935.35,3369.49 4928.53,3253.4 5162.78,2967.97 5225.61,2891.42 5273.48,2576.28 5307.56,2351.89 5276.08,2281.73 5099.26,1887.48 4600.7,1836.24 3822.13,1197.67 "/>
 </g>
</svg>
