<?xml version="1.0" encoding="UTF-8"?>
<!DOCTYPE svg PUBLIC "-//W3C//DTD SVG 1.1//EN" "http://www.w3.org/Graphics/SVG/1.1/DTD/svg11.dtd">
<!-- Creator: CorelDRAW 2019 (64 Bit) -->
<svg xmlns="http://www.w3.org/2000/svg" xml:space="preserve" width="62.8222mm" height="62.8222mm" version="1.1" style="shape-rendering:geometricPrecision; text-rendering:geometricPrecision; image-rendering:optimizeQuality; fill-rule:evenodd; clip-rule:evenodd"
viewBox="0 0 6276.59 6276.59"
 xmlns:xlink="http://www.w3.org/1999/xlink">
 <defs>
  <style type="text/css">
   <![CDATA[
    .str0 {stroke:#AA632E;stroke-width:281.97;stroke-linecap:round;stroke-linejoin:round;stroke-miterlimit:22.9256}
    .str1 {stroke:#AA632E;stroke-width:281.97;stroke-linecap:round;stroke-linejoin:round;stroke-miterlimit:10}
    .fil0 {fill:none}
    .fil1 {fill:#AA632E;fill-rule:nonzero}
   ]]>
  </style>
 </defs>
 <g id="Camada_x0020_1">
  <metadata id="CorelCorpID_0Corel-Layer"/>
  <circle class="fil0 str0" cx="3138.29" cy="3138.29" r="2997.31"/>
  <path class="fil1 str1" d="M5447.47 2347.17l-288.09 -134.63 -119.47 36.27 14.94 -85.34 -224.02 -108.8 -70.41 34.13 -17.06 -81.07 51.2 -179.22 -113.08 -121.61 -40.53 40.54 -81.08 -224.02 -59.74 -234.69 -17.06 132.28 -149.35 145.07 -42.67 189.89 -187.75 -68.27 -172.81 -2.14 -16.49 -1.86 -211.79 -23.75 61.86 134.41 -283.76 -49.07 -270.96 147.21 -172.81 -64 -53.33 -256.02 74.67 -189.88 -76.81 -81.07 -4.27 -147.22 -119.47 4.27 -23.47 130.14 -377.63 162.14 -29.87 -61.86 -307.22 -42.67 125.89 243.22 166.41 100.27 10.66 44.8 -416.03 253.89 -23.47 -74.67 -226.16 59.74 -19.2 -172.81 -53.33 -93.88 -145.08 70.41 -4.27 49.08 -292.29 -25.61 25.6 110.94 119.48 27.74 19.2 76.81 -187.75 0 0 125.88 108.81 66.13 -34.14 64.01 57.6 64 -115.21 576.04 -160.01 -34.14 -70.41 85.34 -170.68 -4.27 -134.41 123.75 -25.61 234.68 -145.08 49.07 49.07 61.87 -64 53.33 172.81 279.5 -38.41 89.6 194.16 89.61 279.49 -78.94 4.27 281.62 371.23 0 55.47 -87.47 55.47 32 262.93 -132.29 76.29 -38.39 74.67 -4.27 17.06 119.47 -29.86 32 49.07 64.01 -40.53 66.13 149.35 162.14 268.82 72.54 437.38 189.88 199.4 -241.75 -94.55 -79.09 11.58 -175.59 -258.55 17.35 -32.81 -441.85 576.92 21.21c0,0 25.26,-164.16 39.92,-261.59l249.53 373.5 1143.52 93.86 -80.34 180.13 -17.06 358.21 125.11 -66.84 -17.37 75.25 162.07 67.54 28.94 -67.54 162.08 84.9 344.32 -76.86 -35.6 -316.77 128.72 -178.67 -88.21 -4.64 -133.11 -192.96 102.26 -150.5 -9.66 -71.4 -81.04 44.38 -94.55 -171.73 27.03 -304.87 -202.62 -75.25 189.1 -108.05 228.01 -602.35z"/>
 </g>
</svg>
