<?xml version="1.0" encoding="UTF-8"?>
<!DOCTYPE svg PUBLIC "-//W3C//DTD SVG 1.1//EN" "http://www.w3.org/Graphics/SVG/1.1/DTD/svg11.dtd">
<!-- Creator: CorelDRAW 2019 (64 Bit) -->
<svg xmlns="http://www.w3.org/2000/svg" xml:space="preserve" width="62.8222mm" height="62.8222mm" version="1.1" style="shape-rendering:geometricPrecision; text-rendering:geometricPrecision; image-rendering:optimizeQuality; fill-rule:evenodd; clip-rule:evenodd"
viewBox="0 0 6276.59 6276.59"
 xmlns:xlink="http://www.w3.org/1999/xlink">
 <defs>
  <style type="text/css">
   <![CDATA[
    .str0 {stroke:#6D87A5;stroke-width:281.97;stroke-linecap:round;stroke-linejoin:round;stroke-miterlimit:22.9256}
    .str1 {stroke:#6D87A5;stroke-width:281.97;stroke-linecap:round;stroke-linejoin:round;stroke-miterlimit:10}
    .fil0 {fill:none}
    .fil1 {fill:#6D87A5;fill-rule:nonzero}
   ]]>
  </style>
 </defs>
 <g id="Camada_x0020_1">
  <metadata id="CorelCorpID_0Corel-Layer"/>
  <circle class="fil0 str0" cx="3138.29" cy="3138.29" r="2997.31"/>
  <polygon class="fil1 str1" points="5228.38,2218.31 5468.79,1633.22 4951.84,1637.22 4767.5,1416.81 3785.67,1045.54 3252.65,1395.61 2859.87,1296.6 2859.87,1721.38 2631.48,2218.31 2735.69,2460.79 2539.3,2679.18 2338.91,2595.02 1565.48,2759.37 1474.41,3052.68 1422.01,3221.56 1353.07,3276.33 1176.74,3400.58 896.2,4025.73 655.74,4129.95 590.58,4218.1 1260.9,4218.1 1461.26,4342.32 1845.98,4342.32 1990.26,4991.54 2298.85,5039.64 2294.85,5151.84 2530.23,5231.03 2807.76,4944.96 3419.26,4665.8 3733.87,4337.9 4646.7,4377.77 4779.63,4107.47 5067.65,3978.97 5092.04,3718.73 5107.53,3553.58 5563.94,3061.72 5586.1,2596.45 5380.67,2494.85 "/>
 </g>
</svg>
