<?xml version="1.0" encoding="UTF-8"?>
<!DOCTYPE svg PUBLIC "-//W3C//DTD SVG 1.1//EN" "http://www.w3.org/Graphics/SVG/1.1/DTD/svg11.dtd">
<!-- Creator: CorelDRAW 2019 (64 Bit) -->
<svg xmlns="http://www.w3.org/2000/svg" xml:space="preserve" width="62.8222mm" height="62.8222mm" version="1.1" style="shape-rendering:geometricPrecision; text-rendering:geometricPrecision; image-rendering:optimizeQuality; fill-rule:evenodd; clip-rule:evenodd"
viewBox="0 0 6276.59 6276.59"
 xmlns:xlink="http://www.w3.org/1999/xlink">
 <defs>
  <style type="text/css">
   <![CDATA[
    .str0 {stroke:#C1E1F1;stroke-width:281.97;stroke-linecap:round;stroke-linejoin:round;stroke-miterlimit:22.9256}
    .str1 {stroke:#C1E1F1;stroke-width:281.97;stroke-linecap:round;stroke-linejoin:round;stroke-miterlimit:10}
    .fil0 {fill:none}
    .fil1 {fill:#C1E1F1;fill-rule:nonzero}
   ]]>
  </style>
 </defs>
 <g id="Camada_x0020_1">
  <metadata id="CorelCorpID_0Corel-Layer"/>
  <circle class="fil0 str0" cx="3138.29" cy="3138.29" r="2997.31"/>
  <polygon class="fil1 str1" points="4982.64,1709.21 4618.75,1652.48 4448.63,886.92 3994.94,886.92 3758.68,740.45 2968.25,740.45 2473.73,1409.45 2296.08,2062.6 2614.81,2062.6 2755.89,2407.47 2661.84,2756.43 1747.42,3290.55 1021.1,4194.5 1371.21,4126.58 1721.29,4596.85 1888.5,4461.01 2682.74,4941.72 2964.9,5307.49 2745.44,5464.24 2761.11,5735.96 3158.23,5521.72 3403.82,4957.4 4098.78,4445.33 4433.19,3750.35 4835.54,3478.65 4960.96,2940.45 4903.47,2297.74 5255.48,1934.9 4977.92,1841.52 "/>
 </g>
</svg>
