<?xml version="1.0" encoding="UTF-8"?>
<!DOCTYPE svg PUBLIC "-//W3C//DTD SVG 1.1//EN" "http://www.w3.org/Graphics/SVG/1.1/DTD/svg11.dtd">
<!-- Creator: CorelDRAW 2019 (64 Bit) -->
<svg xmlns="http://www.w3.org/2000/svg" xml:space="preserve" width="306.39mm" height="41.2007mm" version="1.1" style="shape-rendering:geometricPrecision; text-rendering:geometricPrecision; image-rendering:optimizeQuality; fill-rule:evenodd; clip-rule:evenodd"
viewBox="0 0 30921.32 4158.03"
 xmlns:xlink="http://www.w3.org/1999/xlink">
 <defs>
  <style type="text/css">
   <![CDATA[
    .fil1 {fill:black}
    .fil0 {fill:black;fill-rule:nonzero}
   ]]>
  </style>
 </defs>
 <g id="Camada_x0020_1">
  <metadata id="CorelCorpID_0Corel-Layer"/>
  <path class="fil0" d="M19820.69 4034.25c54.85,24.94 128.39,49.87 220.64,74.8 92.25,24.93 193.22,40.51 302.93,46.75 109.7,6.23 224.39,-0.63 344.06,-20.57 119.67,-19.95 234.36,-62.33 344.06,-127.16 0,-2.49 12.46,-14.33 37.39,-35.52 24.94,-21.19 53.61,-51.11 86.02,-89.75 32.42,-38.65 66.07,-88.52 100.98,-149.6 34.9,-61.09 62.33,-132.76 82.27,-215.04 19.94,-82.27 28.67,-177.02 26.18,-284.22 -2.49,-107.2 -23.69,-226.87 -63.58,-359.02 -57.34,-129.64 -118.42,-241.84 -183.24,-336.58 -64.82,-94.73 -133.39,-178.26 -205.69,-250.56 -72.31,-72.31 -147.1,-136.51 -224.39,-192.61 -77.3,-56.09 -156.45,-111.57 -237.48,-166.42 -81.03,-54.85 -163.93,-113.44 -248.7,-175.76 -84.76,-62.33 -170.78,-134.64 -258.05,-216.91 -39.88,-92.25 -47.99,-177.64 -24.3,-256.18 23.69,-78.54 66.06,-145.85 127.15,-201.94 61.08,-56.1 134.01,-99.73 218.78,-130.89 84.76,-31.16 169.54,-46.75 254.3,-46.75 54.85,17.45 110.95,33.03 168.3,46.75 57.34,13.72 118.42,40.51 183.25,80.4 9.97,29.92 21.81,65.45 35.52,106.58 13.72,41.14 31.79,78.54 54.22,112.19 22.43,33.66 50.49,58.59 84.15,74.79 33.66,16.21 76.66,11.85 129.02,-13.08 14.97,-32.42 21.19,-64.83 18.7,-97.24 -2.49,-32.42 -10.6,-62.95 -24.31,-91.63 -13.71,-28.67 -29.29,-55.48 -46.75,-80.4 -17.45,-24.94 -31.16,-47.37 -41.14,-67.31 -12.46,-82.28 -22.43,-144.61 -29.91,-187 -7.49,-42.38 -21.19,-71.67 -41.15,-87.88 -19.94,-16.21 -48.61,-22.43 -86.02,-18.7 -37.39,3.74 -91,10.6 -160.81,20.57 -87.26,-19.94 -169.54,-29.29 -246.82,-28.05 -77.3,1.25 -153.33,6.86 -228.13,16.83 -164.54,52.36 -297.93,123.41 -400.15,213.17 -102.22,89.75 -168.3,190.11 -198.21,301.05 -29.92,110.95 -19.94,228.76 29.91,353.42 49.87,124.66 144.61,248.07 284.22,370.24 109.7,72.3 218.78,144.6 327.24,216.91 108.45,72.3 208.81,148.34 301.05,228.12 92.25,79.78 174.52,164.55 246.83,254.3 72.3,89.76 127.15,187 164.54,291.7 37.4,104.72 55.48,219.4 54.24,344.06 -1.25,124.67 -29.3,260.54 -84.15,407.64 -44.88,59.84 -92.87,107.21 -143.98,142.11 -51.11,34.91 -104.72,61.71 -160.81,80.41 -56.1,18.69 -114.69,30.54 -175.77,35.52 -61.08,4.99 -121.54,7.48 -181.38,7.48 -79.78,-19.94 -148.34,-35.52 -205.69,-46.75 -57.34,-11.22 -106.58,-23.06 -147.72,-35.52 -41.15,-12.47 -75.42,-26.8 -102.85,-43.01 -27.42,-16.21 -51.73,-40.51 -72.93,-72.93 -21.19,-32.41 -40.51,-74.79 -57.97,-127.15 -17.45,-52.36 -36.15,-119.67 -56.09,-201.95 -37.4,-62.33 -74.18,-104.71 -110.33,-127.15 -36.15,-22.43 -66.07,-28.05 -89.75,-16.82 -23.69,11.21 -38.65,38.02 -44.88,80.4 -6.24,42.39 3.12,94.74 28.05,157.07 7.48,87.26 9.35,163.93 5.61,229.99 -3.74,66.07 1.87,121.55 16.82,166.42 14.97,44.88 44.25,79.16 87.89,102.85 43.63,23.69 116.55,35.52 218.78,35.52zm-6627.18 -2494.43c-12.46,-37.4 -38.64,-87.89 -78.54,-151.46 -39.89,-63.58 -92.24,-130.89 -157.07,-201.95 -64.82,-71.06 -143.36,-142.73 -235.6,-215.03 -92.25,-72.31 -196.34,-137.13 -312.27,-194.48 -115.94,-57.34 -244.96,-103.46 -387.07,-138.37 -142.11,-34.9 -295.44,-49.86 -459.99,-44.87 -219.4,0 -413.25,19.32 -581.54,57.96 -168.3,38.65 -319.13,99.73 -452.52,183.25 -133.38,83.52 -253.05,192.6 -359.02,327.23 -105.96,134.64 -205.06,296.7 -297.31,486.18 -37.39,122.17 -65.45,251.81 -84.14,388.94 -18.7,137.12 -24.94,276.12 -18.7,416.99 6.23,140.87 24.93,280.48 56.09,418.85 31.16,138.37 77.91,271.14 140.24,398.29 47.37,122.17 116.56,228.13 207.56,317.88 91,89.76 190.73,165.8 299.18,228.13 108.45,62.33 218.78,114.06 330.97,155.2 112.19,41.14 215.03,72.93 308.54,95.36 93.49,22.44 169.54,38.03 228.12,46.76 58.59,8.72 89.13,13.09 91.63,13.09 331.6,-7.49 614.57,-54.24 848.93,-140.25 234.36,-86.02 428.21,-198.82 581.54,-338.45 153.33,-139.61 269.27,-298.56 347.8,-476.82 78.53,-178.26 127.78,-362.14 147.72,-551.62 19.94,-189.48 14.33,-377.72 -16.83,-564.7 -31.16,-187 -80.4,-359.03 -147.72,-516.09zm-1430.83 108.6c-2.9,190.71 -94.33,387.14 -225.1,525.34 19.48,0 39.35,0 59.02,0 -129.23,-137.09 -223.93,-335.92 -224.14,-525.34 -0.19,-189.19 95.1,-388.48 224.14,-525.33 -19.67,0 -39.54,0 -59.02,0 130.77,138.2 222.21,334.63 225.1,525.33 0.77,53.82 84.67,53.97 83.91,0 -3.67,-213.04 -103.59,-430.24 -249.99,-584.53 -15.04,-16.07 -43.97,-16.14 -59.02,0 -144.29,152.76 -249.01,373.07 -248.82,584.53 0.38,211.7 104.34,431.47 248.82,584.54 15.05,16.14 43.98,16.07 59.02,0 146.41,-154.28 246.32,-371.47 249.99,-584.54 0.77,-53.87 -83.14,-53.89 -83.91,0zm218.34 1585.82c227.8,-2.94 460.81,-53.38 651.96,-182.59 183.83,-124.31 306.51,-310.53 357.23,-525.74 6.18,-25.69 -12.15,-53.76 -40.31,-52.98 -224.53,6.23 -455.02,46.62 -648.11,167.3 -196.17,122.48 -326.18,316.33 -398.7,533.12 -50.03,149.69 -73.53,307.15 -84.44,464.32 -13.7,2.44 -27.41,4.68 -41.16,6.72 -31.71,-208.19 -32.16,-419.14 -15.02,-628.96 14.65,-175.6 44.55,-351.82 105.9,-517.55 96.25,-259.57 282.58,-462.39 547.22,-552.67 160.87,-54.89 331.19,-71.19 500.16,-71.69 -13.3,-17.67 -26.8,-35.31 -40.31,-52.98 -51.88,219.04 -182.86,421.37 -362.82,558.16 -168.01,127.77 -397.54,200.28 -601.62,243.71 -431.87,91.9 -935.32,-15.71 -1291.77,-278.3 -176.68,-130.16 -309.39,-308.49 -360.31,-523.57 -13.5,17.67 -27.01,35.31 -40.32,52.98 273.71,0.83 567.47,45.25 782.55,229.17 232.23,198.8 323.27,509.19 359.15,802.55 30.21,244.18 35.79,497.04 -3.37,740.56 -13.78,-1.95 -27.52,-4.1 -41.24,-6.45 -17.13,-260.01 -63.57,-532.51 -207.49,-754.2 -118.05,-181.9 -297.44,-304.12 -505.17,-361.86 -135.8,-37.74 -278.15,-49.83 -418.57,-50.34 -27.97,-0.08 -46.69,26.75 -40.51,52.98 50.73,215.36 173.8,401.17 357.42,525.74 190.77,129.35 424.16,179.65 651.96,182.59 53.82,0.7 53.82,-83.02 0,-83.71l0 0c-208.9,-2.68 -420.1,-47.35 -596.79,-162.66 -172.65,-112.47 -284.9,-285.09 -331.78,-484.19 -13.5,17.65 -27,35.3 -40.31,52.97 268.88,0.94 555.13,49.92 752.65,248.07 211.3,211.94 272.93,527.9 293.67,817.47 -131.74,-30.7 -260.12,-79.95 -381.05,-147.81 -47.07,-26.4 -89.31,45.87 -42.25,72.28 471.81,264.74 1051.25,262.56 1520.54,-6.17 46.88,-26.78 4.82,-99.11 -42.25,-72.28l0 0c-121,69.29 -249.76,119.86 -382.07,151.66 22.66,-292.13 96.37,-600.96 314.18,-809.55 195.78,-187.26 469.29,-246.42 732.01,-253.69 -13.31,-17.67 -26.81,-35.32 -40.32,-52.97 -46.87,199.12 -159.32,371.72 -331.77,484.19 -176.88,115.31 -387.9,159.98 -596.8,162.66 -53.82,0.7 -54.01,84.41 0,83.71l0 0zm-541.2 420.88c35.53,-228.35 34.04,-461.65 10.95,-691.33 -18.32,-180.78 -51.88,-362.1 -120.75,-530.91 -108.59,-265.79 -305.34,-468.29 -578.08,-564.58 -170.32,-60.2 -353.57,-77.97 -533.34,-78.51 -27.97,-0.08 -46.68,26.75 -40.51,52.98 98.38,414.4 469.3,676.15 855.65,800.26 255.97,82.1 528.51,116.33 795.47,78.4 231.66,-32.93 485.9,-113.15 683.98,-241.32 219.9,-142.45 382.89,-384.01 442.87,-637.33 6.37,-26.23 -12.15,-53.06 -40.32,-52.98 -301.28,0.91 -616.85,55.88 -850.05,260.92 -249.99,219.84 -342.39,560.35 -378.45,879.4 -27.11,240.74 -28.14,484.48 7.53,724.14 -84.78,7.7 -170.11,7.99 -254.96,0.87zm1102.97 -21.02c-74.8,49.87 -162.06,95.36 -261.79,136.51 -99.73,41.14 -206.93,73.54 -321.62,97.23 -114.69,23.69 -234.36,38.03 -359.03,43.01 -124.66,4.99 -249.94,-3.74 -375.84,-26.18 -125.91,-22.44 -249.95,-60.46 -372.12,-114.06 -122.17,-53.61 -238.09,-126.54 -347.79,-218.78 -64.82,-54.85 -128.4,-130.28 -190.73,-226.27 -62.33,-95.99 -117.81,-202.57 -166.42,-319.75 -48.61,-117.18 -87.88,-241.21 -117.81,-372.11 -29.91,-130.89 -44.88,-258.67 -44.88,-383.33 0,-14.96 4.99,-55.48 14.97,-121.54 9.97,-66.07 28.05,-144.61 54.22,-235.61 26.18,-91 62.33,-189.48 108.45,-295.45 46.12,-105.96 105.96,-206.93 179.51,-302.92 73.55,-96 162.06,-182.01 265.52,-258.05 103.47,-76.04 226.27,-129.03 368.37,-158.94 209.43,-77.3 430.08,-107.21 661.94,-89.76 231.87,17.45 450.02,81.66 654.46,192.6 204.44,110.95 383.33,266.78 536.66,467.48 153.33,200.7 256.18,443.17 308.54,727.39 -5,142.11 -13.72,279.85 -26.18,413.24 -12.47,133.39 -38.65,261.79 -78.54,385.2 -39.89,123.42 -97.86,239.97 -173.91,349.67 -76.03,109.7 -181.38,213.17 -316,310.4zm980.14 344.06c0,-7.48 -4.36,-18.07 -13.09,-31.79 -8.72,-13.72 -17.45,-28.67 -26.18,-44.88 -8.72,-16.2 -15.58,-34.28 -20.57,-54.22 -4.99,-19.94 -4.99,-41.14 0,-63.57 137.56,-285.31 281.54,-651.02 431.94,-921.87 18.7,-33.66 44.25,-75.42 76.67,-125.28l239.34 0c447.41,0 895.01,-3.73 1342.59,-3.73 158.1,349.14 324.08,822.04 482.48,1125.68 0,27.42 -0.63,44.89 -1.87,52.36 -1.24,7.48 -8.1,21.19 -20.57,41.14 12.46,32.42 33.66,61.1 63.57,86.02 29.91,24.93 63.59,42.39 100.98,52.36 37.39,9.96 77.29,10.59 119.67,1.87 42.37,-8.72 82.27,-30.54 119.67,-65.45 4.99,-19.94 9.36,-32.41 13.09,-37.39 3.73,-4.98 5.61,-8.73 5.61,-11.22 0,-2.49 -5.79,-9.32 -18.7,-18.7 -41.95,-30.51 -95.37,-94.13 -158.94,-192.6 -88.24,-136.69 -495.87,-1138.68 -604.03,-1372.5 -223.12,-482.35 -441.08,-980.36 -682.51,-1452.91 -58.58,-114.69 -106.58,-199.45 -143.98,-254.3 -27.42,-12.46 -48.61,-20.57 -63.57,-24.31 -14.97,-3.74 -28.06,-3.74 -39.27,0 -11.22,3.74 -22.44,11.22 -33.66,22.43 -11.22,11.22 -25.55,24.31 -43.01,39.27 -44.88,94.74 -102.84,218.16 -173.9,370.24 -262.13,561.04 -527.83,1121.9 -781.62,1686.65 -153.18,340.89 -309.27,684.82 -446.91,1032.18 -2.49,7.48 -12.46,18.07 -29.91,31.79 -17.45,13.72 -33.04,29.91 -46.75,48.61 -13.72,18.7 -21.82,40.52 -24.31,65.45 -2.49,24.94 9.97,52.36 37.4,82.28 14.96,19.94 40.51,34.27 76.66,43 36.15,8.73 72.93,10.6 110.33,5.61 37.4,-4.99 71.06,-16.21 100.97,-33.66 29.92,-17.46 47.37,-43.63 52.36,-78.54zm594.63 -1473.48c-2.49,-2.49 10.6,-41.76 39.27,-117.8 159.35,-422.66 343.54,-885.94 542.27,-1290.23 36.15,-73.55 56.72,-110.33 61.7,-110.33 207.14,512.39 465.74,1002.73 665.69,1518.35 -437.66,5.03 -871.38,-19.88 -1308.93,0zm931.75 -2046.9c170.58,-71.91 341.15,-143.81 511.72,-215.72 32.37,-12.95 100.48,-50.21 52.91,-114.75 -19.01,-24.15 -38.02,-48.3 -57.03,-72.46 -72.44,-92.04 -105.56,-46.4 -145.77,-19.22 -183.62,118.55 -367.24,237.08 -550.87,355.64 -116.92,75.49 -17.11,77.78 25.75,85.71 95.65,18.79 75.39,17.84 163.29,-19.21zm1828.28 3576.47c54.85,24.94 128.39,49.87 220.64,74.8 92.25,24.93 193.22,40.51 302.93,46.75 109.7,6.23 224.39,-0.63 344.06,-20.57 119.67,-19.95 234.36,-62.33 344.06,-127.16 0,-2.49 12.46,-14.33 37.39,-35.52 24.94,-21.19 53.61,-51.11 86.02,-89.75 32.42,-38.65 66.07,-88.52 100.98,-149.6 34.9,-61.09 62.33,-132.76 82.27,-215.04 19.94,-82.27 28.67,-177.02 26.18,-284.22 -2.49,-107.2 -23.69,-226.87 -63.58,-359.02 -57.34,-129.64 -118.42,-241.84 -183.24,-336.58 -64.82,-94.73 -133.39,-178.26 -205.69,-250.56 -72.31,-72.31 -147.1,-136.51 -224.39,-192.61 -77.3,-56.09 -156.45,-111.57 -237.48,-166.42 -81.03,-54.85 -163.93,-113.44 -248.7,-175.76 -84.76,-62.33 -170.78,-134.64 -258.05,-216.91 -39.88,-92.25 -47.99,-177.64 -24.3,-256.18 23.69,-78.54 66.06,-145.85 127.15,-201.94 61.08,-56.1 134.01,-99.73 218.78,-130.89 84.76,-31.16 169.54,-46.75 254.3,-46.75 54.85,17.45 110.95,33.03 168.3,46.75 57.34,13.72 118.42,40.51 183.25,80.4 9.97,29.92 21.81,65.45 35.52,106.58 13.72,41.14 31.79,78.54 54.22,112.19 22.43,33.66 50.49,58.59 84.15,74.79 33.66,16.21 76.66,11.85 129.02,-13.08 14.97,-32.42 21.19,-64.83 18.7,-97.24 -2.49,-32.42 -10.6,-62.95 -24.31,-91.63 -13.71,-28.67 -29.29,-55.48 -46.75,-80.4 -17.45,-24.94 -31.16,-47.37 -41.14,-67.31 -12.46,-82.28 -22.43,-144.61 -29.91,-187 -7.49,-42.38 -21.19,-71.67 -41.15,-87.88 -19.94,-16.21 -48.61,-22.43 -86.02,-18.7 -37.39,3.74 -91,10.6 -160.81,20.57 -87.26,-19.94 -169.54,-29.29 -246.82,-28.05 -77.3,1.25 -153.33,6.86 -228.13,16.83 -164.54,52.36 -297.93,123.41 -400.15,213.17 -102.22,89.75 -168.3,190.11 -198.21,301.05 -29.92,110.95 -19.94,228.76 29.91,353.42 49.87,124.66 144.61,248.07 284.22,370.24 109.7,72.3 218.78,144.6 327.24,216.91 108.45,72.3 208.81,148.34 301.05,228.12 92.25,79.78 174.52,164.55 246.83,254.3 72.3,89.76 127.15,187 164.54,291.7 37.4,104.72 55.48,219.4 54.24,344.06 -1.25,124.67 -29.3,260.54 -84.15,407.64 -44.88,59.84 -92.87,107.21 -143.98,142.11 -51.11,34.91 -104.72,61.71 -160.81,80.41 -56.1,18.69 -114.69,30.54 -175.77,35.52 -61.08,4.99 -121.54,7.48 -181.38,7.48 -79.78,-19.94 -148.34,-35.52 -205.69,-46.75 -57.34,-11.22 -106.58,-23.06 -147.72,-35.52 -41.15,-12.47 -75.42,-26.8 -102.85,-43.01 -27.42,-16.21 -51.73,-40.51 -72.93,-72.93 -21.19,-32.41 -40.51,-74.79 -57.97,-127.15 -17.45,-52.36 -36.15,-119.67 -56.09,-201.95 -37.4,-62.33 -74.18,-104.71 -110.33,-127.15 -36.15,-22.43 -66.07,-28.05 -89.75,-16.82 -23.69,11.21 -38.65,38.02 -44.88,80.4 -6.24,42.39 3.12,94.74 28.05,157.07 7.48,87.26 9.35,163.93 5.61,229.99 -3.74,66.07 1.87,121.55 16.82,166.42 14.97,44.88 44.25,79.16 87.89,102.85 43.63,23.69 116.55,35.52 218.78,35.52zm2071.78 44.88c17.45,0 31.79,-0.63 43.01,-1.87 11.21,-1.25 21.81,-3.74 31.78,-7.48 9.98,-3.74 21.19,-9.36 33.67,-16.83 12.46,-7.48 29.91,-18.7 52.35,-33.66 2.5,-34.9 -1.24,-65.45 -11.21,-91.63 -9.97,-26.18 -21.19,-49.24 -33.66,-69.18 -12.47,-19.95 -25.55,-37.4 -39.27,-52.36 -13.72,-14.96 -21.82,-28.67 -24.31,-41.14 -2.49,-129.65 -3.73,-248.07 -3.73,-355.28 0,-107.21 0.62,-210.67 1.87,-310.4 1.24,-99.73 2.49,-200.08 3.73,-301.05 1.25,-100.98 3.12,-210.06 5.61,-327.24 2.49,-117.18 4.37,-245.58 5.61,-385.2 1.25,-139.61 1.87,-297.94 1.87,-474.96l0 -744.21c42.39,-37.4 72.31,-71.68 89.76,-102.85 17.45,-31.16 32.41,-74.17 44.88,-129.02 -74.8,-24.94 -135.25,-41.76 -181.39,-50.49 -46.12,-8.72 -84.76,-11.22 -115.93,-7.48 -31.16,3.74 -59.21,11.85 -84.15,24.31 -24.93,12.46 -53.6,24.93 -86.02,37.39 0,27.43 2.49,49.24 7.48,65.45 4.99,16.21 11.85,31.79 20.57,46.75 8.73,14.97 19.33,31.16 31.79,48.62 12.46,17.45 24.94,42.38 37.4,74.79 2.49,476.2 4.36,954.9 5.61,1436.08 1.24,481.18 5.6,959.88 13.09,1436.08 -22.44,34.9 -44.25,69.18 -65.45,102.84 -21.19,33.67 -31.79,71.68 -31.79,114.07 0,12.46 2.49,25.55 7.48,39.27 4.99,13.71 13.72,28.05 26.18,43 67.31,7.48 138.37,18.7 213.17,33.66z"/>
  <g id="_1914573618432">
   <g>
    <path class="fil1" d="M27356.24 1679.2c-58.49,-5.46 -93.3,-18.71 -85.6,-96.64 20.66,-207 59.23,-398.43 191.48,-574.16 93.07,-124.2 223.83,-249.61 179.63,-438.81 -4.06,-18.33 32.99,-46.09 70.04,-68.32 39.58,272.43 153.93,531.87 63.13,818.9 -91.15,290.07 -368.18,428.88 -530.78,692.28 160.3,-49.98 297.3,-100.78 437.95,-135.15 252.15,-61.61 510.86,-99.67 758.88,-173.45 271.62,-80.94 498.15,22.02 737.32,116.56 67.13,26.79 188.11,13.56 240.17,-32.19 262.76,-229.13 548.57,-197.57 852.29,-123.35 141.97,34.75 291.4,36.48 459.78,55.8 -147.4,222.04 -391.69,274.08 -607.49,405.14 267.87,64.58 535.8,128.56 798.28,191.91 -287.15,345.18 -778.48,403.39 -1022.15,90.32 280.71,172.6 552.69,206.88 811.01,-32 -404.2,-127.02 -806.64,-253.22 -1209,-380.05 -2.27,8.97 -5.06,17.28 -7.32,26.25 107.68,118.9 226.81,229.24 319.11,358.67 93.93,131.46 181.97,265.96 194.72,444.78 18,261.94 -107.79,451.35 -268.21,625.71 -130.92,142.63 -280.96,259.05 -501.11,207.96 -161.28,-38.2 -300.52,-214.89 -297.52,-396.83 2.99,-176.4 123.16,-322.12 284.22,-357.22 140.24,-30.72 232.62,39 285.33,148.49 49.77,103.01 20.28,209.87 -66.7,291.65 -81.41,76.27 -241.82,116.37 -351.59,90.85 43.44,152.78 251.51,201.88 351.89,148.12 280.78,-150.08 620.72,-595.76 414.11,-963.7 -108.96,-193.56 -259.74,-377.12 -430.05,-519.19 -165.78,-138.48 -377.64,-224.37 -576,-320.39 -61.84,-29.87 -144.36,-30.1 -215.86,-24.15 -430.58,38.69 -849.57,137.21 -1246.42,305.99 -202.66,86.38 -387.02,217.34 -578.5,329.63 -52.13,30.35 -101.63,64.7 -170.77,109.13 309.54,50.28 594.83,97.16 881.94,144.24 -87.99,241.16 -377.28,309.61 -566.94,250.28 -127.83,-39.89 -249.17,-114.79 -360.93,-192.88 -94.09,-65.6 -169.78,-98.3 -274.28,-24.68 -63.6,44.43 -142.06,68.07 -213.76,129.43 137.97,15.82 279.45,17.27 412.91,51.06 169.38,42.83 332.15,110.76 495.72,172.01 15.31,6.07 31.62,57.19 23.07,67.3 -30.14,37.18 -66.52,85.97 -107.42,93.6 -136.57,25.6 -272.39,28.5 -396.6,-59.03 -83.18,-58.8 -176.8,-101.57 -263.71,-154.63 -160.52,-98.47 -312.64,-109.14 -504.3,-54.13 -433.06,124.63 -830.45,351.84 -1284.3,416.2 -524.63,74.71 -1004.86,-22.85 -1420.99,-346.47 -103.5,-80.23 -166.78,-242.68 -198.52,-379.33 -56.65,-241.75 29.74,-635.21 284.38,-745.18 184.06,-79.9 382.21,-78.72 559.3,-1.13 83.86,36.71 146.82,153.55 186.55,247.4 29.55,69.9 -125.26,270.75 -215.9,298.56 -70.22,21.5 -147.4,28.67 -221.44,30.02 -108.59,1.71 -154.01,-69.38 -169.13,-168.42 -15.13,-99.03 39,-157.49 119.9,-186.39 107.83,-38.13 220.2,-62.19 379.12,-105.54 -91.19,-42.48 -150.41,-89.92 -212.7,-94.6 -113.62,-8.1 -232.81,-5.14 -344.03,19.67 -199.2,45.52 -238.01,228.27 -276.84,389.49 -83.18,349.49 73.86,628.59 392.62,780.94 425.01,203.32 854.82,268 1306.76,134.46 244.77,-72.31 483.25,-165.05 725.82,-245.01 129.94,-42.98 271.07,-60.05 391.28,-120.16 330.02,-166 651.54,-348.98 976.59,-525.39 70.27,-38.13 137.59,-82.75 209.72,-115.74 229.48,-105.46 280.86,-344.07 400.3,-531.73 68.36,-150.42 136.66,-300.24 204.95,-450.06 13.73,73.61 8.46,146.3 -13.99,213.32 -22.33,65.8 -62.41,125.25 -112.19,221.14 277.66,-187.39 376.14,-600.4 241.88,-863.36 -219.68,251.33 -352.24,537.27 -319.12,882.22zm2093.02 221.55c420.94,190.53 973.03,123.29 1096.34,-124.91 -80.22,-14.73 -162.98,-34.09 -246.73,-44.92 -300.85,-40.05 -611.49,-123.71 -849.61,169.83zm-163.25 1079.91c-105.16,-12.06 -262.42,134.94 -254.92,268.21 2.8,50.82 79.41,123.66 135.58,138.73 102.05,28.32 262.11,-105.42 275.44,-205.51 11.37,-83.07 -72.83,-191.88 -156.11,-201.43zm-2627.06 -392.4c224.51,249.3 561.82,358.17 703.89,112.74 -239.52,-37.93 -471.66,-75.63 -703.89,-112.74zm-2945.29 -544.06c-126.55,56.31 -227.99,87.17 -312.64,143.36 -74.63,49.32 -40.96,120.93 18.47,166.54 108.15,82.61 341.97,-12.51 355.16,-148.94 4.54,-45.06 -34.21,-93.84 -60.99,-160.96zm3196.44 1076.6c4.64,-13.62 9.37,-27.86 14.07,-42.11 -184.64,-65.51 -369.25,-131.02 -553.88,-196.53 -6.42,18.37 -12.23,36.78 -18.65,55.13 186.34,61.4 321.96,269.71 558.46,183.52z"/>
    <path class="fil1" d="M23722.84 2930.8c62.77,-21.13 130.57,-70 187.15,-58.59 207.83,40.45 355.73,-78.68 507.76,-174.55 232.26,-145.8 453.56,-308.87 680.12,-463.92 106.26,-72.79 208.54,-51.83 313.6,9.48 111.93,65.8 119.9,178.78 133.52,285.67 3.36,24.4 -33.85,58.92 -59.2,81.27 -196.83,175.11 -440.01,238.97 -691.2,276.07 -239.29,35.36 -479.45,62.03 -720.32,84.28 -113.96,10.95 -229.39,2.63 -344.59,2.97 -2.09,-14.39 -4.72,-28.86 -6.84,-42.66zm591.73 -79.93c6.94,19.89 13.91,39.77 20.25,59.6 306.86,-71.35 615.85,-134.45 918.63,-218.59 71.89,-20.08 144.93,-98.54 180.73,-168.94 38.02,-73.84 22.12,-160.66 -67.13,-220.16 -107.58,-71.46 -196.96,-38.59 -286.37,26.9 -88.81,65.56 -172.98,139.06 -264.4,200.61 -164.69,109.8 -333.69,214.21 -501.7,320.58z"/>
    <path class="fil1" d="M27651.44 2192.8c178.08,-183.42 393.99,-213.48 623.86,-204.35 156.33,6.24 314.4,-8.29 470.17,2.81 122.73,9.15 246.76,33.84 364.53,70.14 107.12,32.6 148.54,127.88 129.57,234.1 -19.86,114.1 -114.19,98.99 -193.46,81.27 -225.22,-49.85 -454.6,-90.3 -672.29,-162.7 -200.5,-66.73 -393.86,-50.7 -592.65,-24.87 -42.45,4.98 -86.49,2.39 -129.74,3.59zm606.39 -78.88c287.83,73.04 575.75,145.47 860.61,217.56 52.53,-125.14 -5.56,-203.87 -98.2,-223.1 -251.26,-53.47 -506.99,-57.55 -762.41,5.54z"/>
    <path class="fil1" d="M26830.6 2095.58c-107.68,-349.82 -195.14,-704.1 136.46,-991.23 166.22,440.89 99.49,818.75 -136.46,991.23zm92.18 -830.64c-204.36,240.75 -98.22,453.69 -35.63,697.34 136.45,-239.31 104.21,-452.38 35.63,-697.34z"/>
    <path class="fil1" d="M30289.94 2367.27c-182.28,-59.08 -364.03,-117.48 -546.31,-176.56 219.75,-25.92 446.72,40.75 557.79,140.95 -3.85,11.87 -7.66,23.74 -11.48,35.62z"/>
    <path class="fil1" d="M30143.92 1873.88c-92.19,105.82 -408.71,100.31 -585.04,0.03 196.41,0.35 384.3,-0.27 585.04,-0.03z"/>
   </g>
  </g>
  <g id="_1914573622624">
   <g>
    <path class="fil1" d="M3565.07 1679.2c58.49,-5.46 93.3,-18.71 85.6,-96.64 -20.66,-207 -59.23,-398.43 -191.48,-574.16 -93.07,-124.2 -223.83,-249.61 -179.63,-438.81 4.06,-18.33 -32.99,-46.09 -70.04,-68.32 -39.58,272.43 -153.93,531.87 -63.13,818.9 91.15,290.07 368.18,428.88 530.78,692.28 -160.3,-49.98 -297.3,-100.78 -437.95,-135.15 -252.15,-61.61 -510.86,-99.67 -758.88,-173.45 -271.62,-80.94 -498.15,22.02 -737.32,116.56 -67.13,26.79 -188.11,13.56 -240.17,-32.19 -262.76,-229.13 -548.57,-197.57 -852.29,-123.35 -141.97,34.75 -291.4,36.48 -459.78,55.8 147.4,222.04 391.69,274.08 607.49,405.14 -267.87,64.58 -535.8,128.56 -798.28,191.91 287.15,345.18 778.48,403.39 1022.15,90.32 -280.71,172.6 -552.69,206.88 -811.01,-32 404.2,-127.02 806.64,-253.22 1209,-380.05 2.27,8.97 5.06,17.28 7.32,26.25 -107.68,118.9 -226.81,229.24 -319.11,358.67 -93.93,131.46 -181.97,265.96 -194.72,444.78 -18,261.94 107.79,451.35 268.21,625.71 130.92,142.63 280.96,259.05 501.11,207.96 161.28,-38.2 300.52,-214.89 297.52,-396.83 -2.99,-176.4 -123.16,-322.12 -284.22,-357.22 -140.24,-30.72 -232.62,39 -285.33,148.49 -49.77,103.01 -20.28,209.87 66.7,291.65 81.41,76.27 241.82,116.37 351.59,90.85 -43.44,152.78 -251.51,201.88 -351.89,148.12 -280.78,-150.08 -620.72,-595.76 -414.11,-963.7 108.96,-193.56 259.74,-377.12 430.05,-519.19 165.78,-138.48 377.64,-224.37 576,-320.39 61.84,-29.87 144.36,-30.1 215.86,-24.15 430.58,38.69 849.57,137.21 1246.42,305.99 202.66,86.38 387.02,217.34 578.5,329.63 52.13,30.35 101.63,64.7 170.77,109.13 -309.54,50.28 -594.83,97.16 -881.94,144.24 87.99,241.16 377.28,309.61 566.94,250.28 127.83,-39.89 249.17,-114.79 360.93,-192.88 94.09,-65.6 169.78,-98.3 274.28,-24.68 63.6,44.43 142.06,68.07 213.76,129.43 -137.97,15.82 -279.45,17.27 -412.91,51.06 -169.38,42.83 -332.15,110.76 -495.72,172.01 -15.31,6.07 -31.62,57.19 -23.07,67.3 30.14,37.18 66.52,85.97 107.42,93.6 136.57,25.6 272.39,28.5 396.6,-59.03 83.18,-58.8 176.8,-101.57 263.71,-154.63 160.52,-98.47 312.64,-109.14 504.3,-54.13 433.06,124.63 830.45,351.84 1284.3,416.2 524.63,74.71 1004.86,-22.85 1420.99,-346.47 103.5,-80.23 166.78,-242.68 198.52,-379.33 56.65,-241.75 -29.74,-635.21 -284.38,-745.18 -184.06,-79.9 -382.21,-78.72 -559.3,-1.13 -83.86,36.71 -146.82,153.55 -186.55,247.4 -29.55,69.9 125.26,270.75 215.9,298.56 70.22,21.5 147.4,28.67 221.44,30.02 108.59,1.71 154.01,-69.38 169.13,-168.42 15.13,-99.03 -39,-157.49 -119.9,-186.39 -107.83,-38.13 -220.2,-62.19 -379.12,-105.54 91.19,-42.48 150.41,-89.92 212.7,-94.6 113.62,-8.1 232.81,-5.14 344.03,19.67 199.2,45.52 238.01,228.27 276.84,389.49 83.18,349.49 -73.86,628.59 -392.62,780.94 -425.01,203.32 -854.82,268 -1306.76,134.46 -244.77,-72.31 -483.25,-165.05 -725.82,-245.01 -129.94,-42.98 -271.07,-60.05 -391.28,-120.16 -330.02,-166 -651.54,-348.98 -976.59,-525.39 -70.27,-38.13 -137.59,-82.75 -209.72,-115.74 -229.48,-105.46 -280.86,-344.07 -400.3,-531.73 -68.36,-150.42 -136.66,-300.24 -204.95,-450.06 -13.73,73.61 -8.46,146.3 13.99,213.32 22.33,65.8 62.41,125.25 112.19,221.14 -277.66,-187.39 -376.14,-600.4 -241.88,-863.36 219.68,251.33 352.24,537.27 319.12,882.22zm-2093.02 221.55c-420.94,190.53 -973.03,123.29 -1096.34,-124.91 80.22,-14.73 162.98,-34.09 246.73,-44.92 300.85,-40.05 611.49,-123.71 849.61,169.83zm163.25 1079.91c105.16,-12.06 262.42,134.94 254.92,268.21 -2.8,50.82 -79.41,123.66 -135.58,138.73 -102.05,28.32 -262.11,-105.42 -275.44,-205.51 -11.37,-83.07 72.83,-191.88 156.11,-201.43zm2627.06 -392.4c-224.51,249.3 -561.82,358.17 -703.89,112.74 239.52,-37.93 471.66,-75.63 703.89,-112.74zm2945.29 -544.06c126.55,56.31 227.99,87.17 312.64,143.36 74.63,49.32 40.96,120.93 -18.47,166.54 -108.15,82.61 -341.97,-12.51 -355.16,-148.94 -4.54,-45.06 34.21,-93.84 60.99,-160.96zm-3196.44 1076.6c-4.64,-13.62 -9.37,-27.86 -14.07,-42.11 184.64,-65.51 369.25,-131.02 553.88,-196.53 6.42,18.37 12.23,36.78 18.65,55.13 -186.34,61.4 -321.96,269.71 -558.46,183.52z"/>
    <path class="fil1" d="M7198.48 2930.8c-62.77,-21.13 -130.57,-70 -187.15,-58.59 -207.83,40.45 -355.73,-78.68 -507.76,-174.55 -232.26,-145.8 -453.56,-308.87 -680.12,-463.92 -106.26,-72.79 -208.54,-51.83 -313.6,9.48 -111.93,65.8 -119.9,178.78 -133.52,285.67 -3.36,24.4 33.85,58.92 59.2,81.27 196.83,175.11 440.01,238.97 691.2,276.07 239.29,35.36 479.45,62.03 720.32,84.28 113.96,10.95 229.39,2.63 344.59,2.97 2.09,-14.39 4.72,-28.86 6.84,-42.66zm-591.73 -79.93c-6.94,19.89 -13.91,39.77 -20.25,59.6 -306.86,-71.35 -615.85,-134.45 -918.63,-218.59 -71.89,-20.08 -144.93,-98.54 -180.73,-168.94 -38.02,-73.84 -22.12,-160.66 67.13,-220.16 107.58,-71.46 196.96,-38.59 286.37,26.9 88.81,65.56 172.98,139.06 264.4,200.61 164.69,109.8 333.69,214.21 501.7,320.58z"/>
    <path class="fil1" d="M3269.88 2192.8c-178.08,-183.42 -393.99,-213.48 -623.86,-204.35 -156.33,6.24 -314.4,-8.29 -470.17,2.81 -122.73,9.15 -246.76,33.84 -364.53,70.14 -107.12,32.6 -148.54,127.88 -129.57,234.1 19.86,114.1 114.19,98.99 193.46,81.27 225.22,-49.85 454.6,-90.3 672.29,-162.7 200.5,-66.73 393.86,-50.7 592.65,-24.87 42.45,4.98 86.49,2.39 129.74,3.59zm-606.39 -78.88c-287.83,73.04 -575.75,145.47 -860.61,217.56 -52.53,-125.14 5.56,-203.87 98.2,-223.1 251.26,-53.47 506.99,-57.55 762.41,5.54z"/>
    <path class="fil1" d="M4090.71 2095.58c107.68,-349.82 195.14,-704.1 -136.46,-991.23 -166.22,440.89 -99.49,818.75 136.46,991.23zm-92.18 -830.64c204.36,240.75 98.22,453.69 35.63,697.34 -136.45,-239.31 -104.21,-452.38 -35.63,-697.34z"/>
    <path class="fil1" d="M631.37 2367.27c182.28,-59.08 364.03,-117.48 546.31,-176.56 -219.75,-25.92 -446.72,40.75 -557.79,140.95 3.85,11.87 7.66,23.74 11.48,35.62z"/>
    <path class="fil1" d="M777.4 1873.88c92.19,105.82 408.71,100.31 585.04,0.03 -196.41,0.35 -384.3,-0.27 -585.04,-0.03z"/>
   </g>
  </g>
 </g>
</svg>
