<?xml version="1.0" encoding="UTF-8"?>
<!DOCTYPE svg PUBLIC "-//W3C//DTD SVG 1.1//EN" "http://www.w3.org/Graphics/SVG/1.1/DTD/svg11.dtd">
<!-- Creator: CorelDRAW 2019 (64 Bit) -->
<svg xmlns="http://www.w3.org/2000/svg" xml:space="preserve" width="83.7507mm" height="30.025mm" version="1.1" style="shape-rendering:geometricPrecision; text-rendering:geometricPrecision; image-rendering:optimizeQuality; fill-rule:evenodd; clip-rule:evenodd"
viewBox="0 0 8529.7 3057.94"
 xmlns:xlink="http://www.w3.org/1999/xlink">
 <defs>
  <style type="text/css">
   <![CDATA[
    .fil0 {fill:white;fill-rule:nonzero}
   ]]>
  </style>
 </defs>
 <g id="Camada_x0020_1">
  <metadata id="CorelCorpID_0Corel-Layer"/>
  <path class="fil0" d="M7393.5 2966.91c40.34,18.34 94.42,36.67 162.27,55.01 67.84,18.33 142.11,29.8 222.78,34.38 80.68,4.58 165.02,-0.46 253.04,-15.12 88.01,-14.68 172.35,-45.84 253.03,-93.53 0,-1.83 9.17,-10.53 27.5,-26.12 18.34,-15.58 39.42,-37.58 63.26,-66 23.84,-28.44 48.6,-65.1 74.27,-110.02 25.67,-44.92 45.84,-97.63 60.51,-158.15 14.67,-60.51 21.08,-130.18 19.25,-209.03 -1.83,-78.84 -17.42,-166.84 -46.76,-264.03 -42.16,-95.35 -87.09,-177.85 -134.76,-247.54 -47.66,-69.67 -98.09,-131.1 -151.26,-184.27 -53.18,-53.17 -108.19,-100.39 -165.02,-141.65 -56.85,-41.25 -115.06,-82.05 -174.66,-122.39 -59.59,-40.34 -120.56,-83.42 -182.9,-129.26 -62.34,-45.84 -125.6,-99.02 -189.78,-159.52 -29.33,-67.84 -35.29,-130.64 -17.86,-188.4 17.42,-57.77 48.58,-107.26 93.51,-148.52 44.92,-41.26 98.56,-73.34 160.9,-96.27 62.34,-22.92 124.68,-34.37 187.02,-34.37 40.34,12.83 81.6,24.29 123.77,34.37 42.16,10.09 87.09,29.8 134.76,59.13 7.33,22.01 16.04,48.13 26.13,78.39 10.08,30.25 23.37,57.76 39.87,82.51 16.5,24.76 37.13,43.09 61.88,55.01 24.76,11.92 56.38,8.72 94.89,-9.61 11.01,-23.84 15.58,-47.68 13.75,-71.52 -1.83,-23.84 -7.79,-46.3 -17.87,-67.38 -10.08,-21.09 -21.54,-40.8 -34.38,-59.13 -12.83,-18.34 -22.92,-34.84 -30.25,-49.51 -9.17,-60.52 -16.5,-106.35 -22,-137.52 -5.51,-31.16 -15.59,-52.72 -30.26,-64.63 -14.67,-11.92 -35.76,-16.5 -63.27,-13.75 -27.5,2.75 -66.92,7.79 -118.26,15.12 -64.16,-14.67 -124.68,-21.54 -181.52,-20.62 -56.84,0.92 -112.75,5.04 -167.77,12.37 -121.01,38.51 -219.1,90.76 -294.29,156.77 -75.17,66.01 -123.77,139.8 -145.77,221.39 -22,81.6 -14.67,168.24 22,259.92 36.67,91.67 106.36,182.44 209.03,272.28 80.68,53.17 160.9,106.35 240.66,159.53 79.76,53.16 153.56,109.09 221.4,167.76 67.84,58.67 128.35,121.01 181.52,187.02 53.17,66.02 93.52,137.52 121.01,214.53 27.51,77.02 40.8,161.36 39.88,253.04 -0.92,91.68 -21.54,191.6 -61.88,299.78 -33.01,44.01 -68.3,78.85 -105.89,104.51 -37.59,25.68 -77.02,45.38 -118.26,59.14 -41.26,13.74 -84.35,22.46 -129.27,26.12 -44.91,3.67 -89.38,5.5 -133.39,5.5 -58.67,-14.67 -109.1,-26.12 -151.27,-34.38 -42.16,-8.25 -78.38,-16.96 -108.63,-26.12 -30.26,-9.18 -55.47,-19.72 -75.64,-31.63 -20.17,-11.92 -38.04,-29.79 -53.63,-53.63 -15.58,-23.83 -29.79,-55.01 -42.63,-93.51 -12.83,-38.51 -26.58,-88.02 -41.25,-148.52 -27.51,-45.84 -54.56,-77.01 -81.14,-93.52 -26.58,-16.5 -48.59,-20.62 -66.01,-12.37 -17.42,8.25 -28.43,27.96 -33,59.13 -4.59,31.18 2.29,69.68 20.62,115.51 5.5,64.17 6.87,120.56 4.12,169.15 -2.75,48.59 1.37,89.39 12.37,122.39 11.01,33.01 32.54,58.22 64.63,75.64 32.09,17.42 85.72,26.12 160.9,26.12zm-4873.83 -1834.48c-9.17,-27.51 -28.42,-64.64 -57.76,-111.4 -29.34,-46.76 -67.84,-96.25 -115.51,-148.52 -47.67,-52.26 -105.43,-104.96 -173.27,-158.14 -67.84,-53.18 -144.4,-100.85 -229.65,-143.02 -85.27,-42.17 -180.15,-76.09 -284.66,-101.76 -104.51,-25.67 -217.28,-36.66 -338.29,-33 -161.36,0 -303.92,14.21 -427.68,42.62 -123.76,28.43 -234.69,73.35 -332.79,134.77 -98.09,61.42 -186.1,141.64 -264.04,240.65 -77.92,99.02 -150.8,218.2 -218.65,357.55 -27.5,89.84 -48.13,185.19 -61.87,286.04 -13.76,100.85 -18.34,203.07 -13.76,306.67 4.58,103.59 18.33,206.27 41.26,308.03 22.92,101.76 57.3,199.39 103.13,292.91 34.84,89.85 85.72,167.77 152.66,233.78 66.92,66.02 140.26,121.94 220.02,167.78 79.76,45.83 160.9,83.88 243.41,114.13 82.51,30.26 158.14,53.63 226.9,70.13 68.76,16.51 124.68,27.97 167.77,34.39 43.09,6.41 65.55,9.62 67.38,9.62 243.87,-5.51 451.97,-39.89 624.33,-103.15 172.35,-63.26 314.92,-146.22 427.68,-248.9 112.76,-102.68 198.03,-219.57 255.79,-350.67 57.75,-131.1 93.97,-266.33 108.64,-405.67 14.67,-139.36 10.53,-277.79 -12.38,-415.31 -22.92,-137.52 -59.13,-264.04 -108.64,-379.54zm-1052.28 79.87c-2.13,140.25 -69.37,284.71 -165.55,386.34 14.33,0 28.94,0 43.41,0 -95.04,-100.82 -164.69,-247.04 -164.84,-386.34 -0.14,-139.14 69.94,-285.7 164.84,-386.34 -14.46,0 -29.08,0 -43.41,0 96.18,101.63 163.42,246.1 165.55,386.34 0.57,39.58 62.27,39.69 61.71,0 -2.7,-156.68 -76.18,-316.42 -183.85,-429.88 -11.06,-11.81 -32.34,-11.87 -43.41,0 -106.11,112.35 -183.13,274.36 -182.99,429.88 0.29,155.69 76.74,317.31 182.99,429.88 11.07,11.87 32.35,11.81 43.41,0 107.67,-113.47 181.15,-273.19 183.85,-429.88 0.56,-39.62 -61.14,-39.64 -61.71,0zm160.58 1166.25c167.53,-2.16 338.88,-39.25 479.47,-134.27 135.19,-91.43 225.42,-228.38 262.71,-386.65 4.54,-18.89 -8.93,-39.54 -29.64,-38.97 -165.13,4.58 -334.65,34.28 -476.64,123.04 -144.27,90.07 -239.88,232.64 -293.22,392.07 -36.79,110.09 -54.08,225.89 -62.1,341.47 -10.07,1.8 -20.17,3.44 -30.27,4.95 -23.32,-153.12 -23.66,-308.25 -11.05,-462.57 10.78,-129.14 32.76,-258.74 77.88,-380.62 70.78,-190.9 207.82,-340.05 402.44,-406.45 118.31,-40.37 243.58,-52.36 367.84,-52.73 -9.79,-13 -19.72,-25.97 -29.65,-38.97 -38.16,161.09 -134.48,309.89 -266.83,410.48 -123.57,93.96 -292.37,147.29 -442.45,179.24 -317.62,67.59 -687.86,-11.56 -950.01,-204.67 -129.94,-95.73 -227.53,-226.87 -264.98,-385.05 -9.93,13 -19.86,25.97 -29.65,38.97 201.29,0.61 417.34,33.28 575.51,168.54 170.79,146.21 237.74,374.48 264.13,590.22 22.21,179.58 26.32,365.54 -2.47,544.63 -10.13,-1.44 -20.25,-3.01 -30.33,-4.75 -12.6,-191.22 -46.76,-391.62 -152.6,-554.67 -86.81,-133.78 -218.75,-223.65 -371.53,-266.12 -99.87,-27.75 -204.56,-36.64 -307.83,-37.02 -20.56,-0.06 -34.33,19.68 -29.79,38.97 37.32,158.38 127.82,295.04 262.87,386.65 140.29,95.12 311.94,132.12 479.47,134.27 39.58,0.51 39.58,-61.06 0,-61.57l0 0c-153.64,-1.98 -308.96,-34.82 -438.9,-119.63 -126.97,-82.71 -209.53,-209.66 -244,-356.09 -9.93,12.98 -19.85,25.96 -29.65,38.96 197.76,0.69 408.26,36.71 553.52,182.44 155.4,155.88 200.73,388.24 215.98,601.2 -96.89,-22.58 -191.3,-58.8 -280.23,-108.7 -34.62,-19.42 -65.68,33.73 -31.07,53.15 346.98,194.7 773.12,193.09 1118.25,-4.53 34.47,-19.7 3.54,-72.89 -31.06,-53.16l0 0c-88.99,50.96 -183.69,88.16 -280.99,111.54 16.67,-214.83 70.87,-441.96 231.06,-595.36 143.98,-137.72 345.14,-181.23 538.35,-186.57 -9.8,-13 -19.73,-25.98 -29.66,-38.96 -34.46,146.43 -117.16,273.38 -243.99,356.09 -130.08,84.81 -285.27,117.65 -438.9,119.63 -39.59,0.51 -39.73,62.08 0,61.57l0 0zm-398.02 309.53c26.13,-167.94 25.03,-339.52 8.05,-508.43 -13.46,-132.95 -38.15,-266.3 -88.8,-390.45 -79.86,-195.46 -224.55,-344.39 -425.14,-415.21 -125.26,-44.27 -260.02,-57.34 -392.23,-57.74 -20.57,-0.06 -34.33,19.68 -29.79,38.97 72.34,304.77 345.14,497.26 629.27,588.53 188.24,60.38 388.69,85.55 585.02,57.66 170.37,-24.22 357.34,-83.22 503.02,-177.48 161.72,-104.76 281.58,-282.41 325.7,-468.71 4.68,-19.29 -8.93,-39.03 -29.65,-38.97 -221.58,0.67 -453.65,41.1 -625.15,191.89 -183.85,161.67 -251.8,412.09 -278.33,646.73 -19.94,177.05 -20.7,356.31 5.53,532.55 -62.35,5.66 -125.11,5.88 -187.5,0.64zm811.16 -15.46c-55.02,36.67 -119.18,70.13 -192.53,100.39 -73.34,30.25 -152.18,54.08 -236.53,71.51 -84.34,17.42 -172.35,27.97 -264.04,31.63 -91.68,3.67 -183.81,-2.76 -276.4,-19.26 -92.6,-16.5 -183.82,-44.47 -273.67,-83.88 -89.84,-39.42 -175.1,-93.06 -255.78,-160.9 -47.67,-40.34 -94.43,-95.81 -140.27,-166.4 -45.84,-70.6 -86.63,-148.98 -122.39,-235.15 -35.75,-86.18 -64.63,-177.4 -86.64,-273.66 -22,-96.27 -33,-190.24 -33,-281.91 0,-11 3.67,-40.8 11,-89.39 7.33,-48.59 20.63,-106.35 39.88,-173.27 19.25,-66.92 45.84,-139.35 79.76,-217.28 33.93,-77.92 77.92,-152.19 132.01,-222.78 54.1,-70.6 119.19,-133.86 195.28,-189.77 76.1,-55.92 166.4,-94.89 270.91,-116.89 154.02,-56.85 316.29,-78.85 486.82,-66.02 170.52,12.83 330.95,60.06 481.31,141.65 150.36,81.6 281.92,196.2 394.67,343.79 112.76,147.61 188.41,325.92 226.91,534.95 -3.68,104.5 -10.09,205.81 -19.26,303.91 -9.17,98.1 -28.43,192.53 -57.76,283.29 -29.33,90.77 -71.96,176.48 -127.89,257.16 -55.92,80.67 -133.4,156.76 -232.4,228.28zm720.82 253.03c0,-5.5 -3.2,-13.29 -9.62,-23.37 -6.41,-10.08 -12.83,-21.08 -19.25,-33.01 -6.42,-11.91 -11.46,-25.21 -15.12,-39.87 -3.67,-14.67 -3.67,-30.26 0,-46.76 101.15,-209.82 207.05,-478.78 317.66,-677.97 13.76,-24.75 32.55,-55.46 56.38,-92.13l176.02 0c329.05,0 658.22,-2.75 987.38,-2.75 116.28,256.76 238.34,604.56 354.83,827.86 0,20.17 -0.46,33.01 -1.36,38.51 -0.92,5.5 -5.97,15.58 -15.13,30.25 9.17,23.84 24.76,44.93 46.76,63.26 22,18.33 46.77,31.18 74.27,38.51 27.5,7.32 56.83,7.78 88.01,1.37 31.16,-6.42 60.51,-22.46 88.02,-48.13 3.67,-14.67 6.87,-23.83 9.62,-27.5 2.75,-3.66 4.12,-6.43 4.12,-8.26 0,-1.83 -4.26,-6.84 -13.75,-13.75 -30.86,-22.44 -70.14,-69.22 -116.89,-141.64 -64.9,-100.53 -364.68,-837.43 -444.23,-1009.38 -164.08,-354.74 -324.38,-720.99 -501.93,-1068.52 -43.09,-84.34 -78.39,-146.68 -105.9,-187.02 -20.17,-9.17 -35.75,-15.12 -46.75,-17.87 -11.01,-2.76 -20.63,-2.76 -28.87,0 -8.26,2.75 -16.51,8.25 -24.76,16.5 -8.25,8.25 -18.79,17.87 -31.63,28.87 -33.01,69.68 -75.63,160.45 -127.89,272.29 -192.77,412.61 -388.18,825.08 -574.82,1240.42 -112.65,250.69 -227.45,503.63 -328.67,759.09 -1.83,5.5 -9.17,13.29 -22,23.38 -12.83,10.08 -24.3,22 -34.38,35.75 -10.08,13.76 -16.05,29.8 -17.88,48.13 -1.83,18.34 7.33,38.51 27.51,60.52 11,14.67 29.79,25.2 56.38,31.62 26.58,6.42 53.63,7.79 81.13,4.12 27.51,-3.67 52.27,-11.92 74.27,-24.75 22,-12.84 34.83,-32.09 38.5,-57.77zm437.31 -1083.64c-1.83,-1.83 7.8,-30.72 28.88,-86.63 117.19,-310.84 252.65,-651.55 398.8,-948.87 26.59,-54.09 41.72,-81.14 45.38,-81.14 152.33,376.82 342.52,737.44 489.57,1116.64 -321.87,3.7 -640.85,-14.63 -962.63,0zm685.24 -1505.35c125.44,-52.88 250.89,-105.77 376.33,-158.65 23.8,-9.52 73.89,-36.93 38.92,-84.39 -13.98,-17.76 -27.97,-35.52 -41.95,-53.3 -53.28,-67.69 -77.63,-34.12 -107.2,-14.13 -135.03,87.19 -270.08,174.36 -405.12,261.54 -85.98,55.52 -12.58,57.21 18.93,63.04 70.35,13.82 55.45,13.12 120.1,-14.13zm1344.57 2630.24c40.34,18.34 94.42,36.67 162.27,55.01 67.84,18.33 142.11,29.8 222.78,34.38 80.68,4.58 165.02,-0.46 253.04,-15.12 88.01,-14.68 172.35,-45.84 253.03,-93.53 0,-1.83 9.17,-10.53 27.5,-26.12 18.34,-15.58 39.42,-37.58 63.26,-66 23.84,-28.44 48.59,-65.1 74.27,-110.02 25.67,-44.92 45.84,-97.63 60.51,-158.15 14.67,-60.51 21.08,-130.18 19.25,-209.03 -1.83,-78.84 -17.42,-166.84 -46.76,-264.03 -42.17,-95.35 -87.09,-177.85 -134.76,-247.54 -47.66,-69.67 -98.1,-131.1 -151.26,-184.27 -53.18,-53.17 -108.19,-100.39 -165.02,-141.65 -56.85,-41.25 -115.06,-82.05 -174.66,-122.39 -59.59,-40.34 -120.56,-83.42 -182.9,-129.26 -62.34,-45.84 -125.6,-99.02 -189.78,-159.52 -29.33,-67.84 -35.29,-130.64 -17.86,-188.4 17.42,-57.77 48.58,-107.26 93.51,-148.52 44.91,-41.26 98.56,-73.34 160.9,-96.27 62.34,-22.92 124.68,-34.37 187.02,-34.37 40.34,12.83 81.6,24.29 123.77,34.37 42.16,10.09 87.09,29.8 134.76,59.13 7.33,22.01 16.04,48.13 26.12,78.39 10.09,30.25 23.38,57.76 39.88,82.51 16.5,24.76 37.13,43.09 61.88,55.01 24.76,11.92 56.38,8.72 94.89,-9.61 11,-23.84 15.58,-47.68 13.75,-71.52 -1.83,-23.84 -7.79,-46.3 -17.87,-67.38 -10.08,-21.09 -21.54,-40.8 -34.38,-59.13 -12.83,-18.34 -22.92,-34.84 -30.25,-49.51 -9.17,-60.52 -16.5,-106.35 -22,-137.52 -5.51,-31.16 -15.59,-52.72 -30.27,-64.63 -14.67,-11.92 -35.75,-16.5 -63.26,-13.75 -27.5,2.75 -66.92,7.79 -118.26,15.12 -64.16,-14.67 -124.68,-21.54 -181.52,-20.62 -56.84,0.92 -112.76,5.04 -167.77,12.37 -121.01,38.51 -219.11,90.76 -294.29,156.77 -75.18,66.01 -123.77,139.8 -145.77,221.39 -22,81.6 -14.67,168.24 22,259.92 36.67,91.67 106.36,182.44 209.03,272.28 80.68,53.17 160.9,106.35 240.66,159.53 79.76,53.16 153.56,109.09 221.39,167.76 67.85,58.67 128.36,121.01 181.53,187.02 53.17,66.02 93.52,137.52 121.01,214.53 27.51,77.02 40.8,161.36 39.88,253.04 -0.92,91.68 -21.54,191.6 -61.88,299.78 -33.01,44.01 -68.3,78.85 -105.89,104.51 -37.59,25.68 -77.02,45.38 -118.26,59.14 -41.26,13.74 -84.35,22.46 -129.27,26.12 -44.91,3.67 -89.38,5.5 -133.39,5.5 -58.67,-14.67 -109.1,-26.12 -151.27,-34.38 -42.16,-8.25 -78.38,-16.96 -108.63,-26.12 -30.26,-9.18 -55.47,-19.72 -75.64,-31.63 -20.17,-11.92 -38.05,-29.79 -53.63,-53.63 -15.58,-23.83 -29.79,-55.01 -42.63,-93.51 -12.83,-38.51 -26.58,-88.02 -41.25,-148.52 -27.51,-45.84 -54.56,-77.01 -81.14,-93.52 -26.58,-16.5 -48.59,-20.62 -66.01,-12.37 -17.42,8.25 -28.43,27.96 -33.01,59.13 -4.58,31.18 2.3,69.68 20.63,115.51 5.5,64.17 6.86,120.56 4.12,169.15 -2.76,48.59 1.37,89.39 12.37,122.39 11,33.01 32.54,58.22 64.63,75.64 32.09,17.42 85.72,26.12 160.9,26.12zm1523.65 33.01c12.83,0 23.38,-0.47 31.63,-1.37 8.25,-0.93 16.04,-2.76 23.37,-5.5 7.34,-2.76 15.58,-6.88 24.76,-12.38 9.17,-5.5 22,-13.75 38.5,-24.75 1.84,-25.67 -0.92,-48.13 -8.25,-67.38 -7.33,-19.26 -15.58,-36.22 -24.75,-50.88 -9.18,-14.68 -18.79,-27.51 -28.87,-38.51 -10.09,-11 -16.05,-21.08 -17.88,-30.25 -1.83,-95.35 -2.75,-182.45 -2.75,-261.29 0,-78.85 0.46,-154.94 1.37,-228.28 0.92,-73.35 1.83,-147.15 2.75,-221.4 0.92,-74.27 2.29,-154.48 4.12,-240.66 1.83,-86.17 3.21,-180.6 4.12,-283.29 0.92,-102.67 1.37,-219.11 1.37,-349.29l0 -547.32c31.18,-27.5 53.17,-52.72 66.01,-75.63 12.83,-22.93 23.83,-54.55 33.01,-94.89 -55.01,-18.33 -99.47,-30.71 -133.4,-37.13 -33.91,-6.41 -62.33,-8.25 -85.26,-5.5 -22.92,2.76 -43.54,8.72 -61.88,17.88 -18.33,9.17 -39.41,18.33 -63.26,27.5 0,20.18 1.83,36.22 5.5,48.13 3.67,11.92 8.71,23.38 15.12,34.38 6.42,11 14.22,22.92 23.38,35.76 9.17,12.83 18.33,31.16 27.5,55 1.83,350.22 3.21,702.26 4.12,1056.14 0.92,353.89 4.12,705.93 9.63,1056.14 -16.51,25.67 -32.55,50.88 -48.13,75.63 -15.59,24.77 -23.38,52.73 -23.38,83.89 0,9.17 1.83,18.8 5.5,28.88 3.67,10.08 10.09,20.62 19.26,31.62 49.5,5.5 101.75,13.76 156.76,24.76z"/>
 </g>
</svg>
